<svg width="218" height="59" viewBox="0 0 218 59" fill="none" xmlns="http://www.w3.org/2000/svg">
<g id="Group">
<path id="Vector" d="M216.44 2.09985H2.41016V57.7799H216.44V2.09985Z" fill="#FF540A"/>
<g id="Group_2">
<path id="Vector_2" d="M163.62 32.9299C163.62 27.4999 166.28 25.9199 170.86 25.9199H173.52V15.6899C169.28 15.6899 165.83 17.9499 163.62 21.2899V16.0299H153.95V47.5799H163.62V32.9399V32.9299Z" fill="#080808"/>
<path id="Vector_3" d="M188.28 48.0198C192.97 48.0198 196.31 45.8698 198.06 43.0998V47.5598H207.73V16.0098H198.06V20.4698C196.36 17.6998 193.03 15.5498 188.33 15.5498C180.58 15.5498 174.42 21.7698 174.42 31.7198C174.42 41.6698 180.58 47.9998 188.27 47.9998L188.28 48.0198ZM191.16 23.9898C194.83 23.9898 198.06 26.7598 198.06 31.7898C198.06 36.8198 194.84 39.5898 191.16 39.5898C187.48 39.5898 184.26 36.7598 184.26 31.7298C184.26 26.6998 187.54 23.9798 191.16 23.9798V23.9898Z" fill="#080808"/>
<path id="Vector_4" d="M99.29 47.5699H109.75L114.84 38.8099L120.89 47.5699H131.75L120.89 31.9099L130.9 16.8699V24.0499H134.75V36.5999C134.75 44.7999 139.33 47.5699 145.89 47.5699H150.81V39.3699H147.36C145.21 39.3699 144.42 38.5799 144.42 36.7099V24.0499H150.75V16.0199H144.42V11.8599H134.75V16.0199H121.01L115.92 24.7299L109.87 16.0199H99.01L109.7 31.4499L99.3 47.5599L99.29 47.5699Z" fill="#080808"/>
<path id="Vector_5" d="M70.3102 34.0998C71.2602 42.7398 77.5902 48.0198 86.1302 48.0198C93.9902 48.0198 99.5802 43.2698 101.11 37.1098H90.8202C90.0302 38.8098 88.5002 40.1598 85.7902 40.1598C82.6802 40.1598 80.1402 38.2398 79.8002 34.1098H101.68C101.79 33.1498 101.85 32.1898 101.85 31.2798C101.85 21.6698 95.3502 15.5598 86.1302 15.5598C77.7402 15.5598 71.6102 20.5298 70.4102 28.7298H65.9602C65.9602 28.7298 66.5802 33.8898 70.3202 34.0898L70.3102 34.0998ZM86.0102 23.3098C89.2302 23.3098 91.9502 25.2898 91.9502 28.7398H79.8502C80.4202 25.2398 82.8502 23.3098 86.0102 23.3098Z" fill="#080808"/>
<path id="Vector_6" d="M10.4302 22.9399C10.5602 25.0799 11.4902 26.9999 12.9102 28.4299C14.3902 29.9099 16.4302 30.8499 18.6802 30.9199V33.8699C18.6802 42.3499 25.5602 49.2299 34.0402 49.2299C38.2802 49.2299 42.1202 47.5099 44.9002 44.7299C46.9602 42.6699 48.4402 40.0299 49.0602 37.0699C49.2702 36.0799 49.3802 35.0599 49.3902 34.0199H39.0202V34.7099C39.0202 35.5699 38.8002 36.3699 38.4202 37.0799C37.5802 38.6299 35.9302 39.6999 34.0402 39.6999C31.2902 39.6999 29.0602 37.4699 29.0602 34.7199V30.9499H49.3902V26.0199C49.3902 22.6299 48.2902 19.4999 46.4302 16.9599C45.5902 15.8099 44.5902 14.7799 43.4702 13.9099C40.8702 11.8799 37.5902 10.6699 34.0402 10.6699C30.4902 10.6699 27.2102 11.8799 24.6102 13.9099C23.4902 14.7799 22.4902 15.8199 21.6502 16.9599C20.9802 17.8699 20.4102 18.8599 19.9602 19.9099H10.8102C10.5702 20.7099 10.4302 21.5499 10.4302 22.4299C10.4302 22.6099 10.4302 22.7899 10.4502 22.9699L10.4302 22.9399ZM34.0402 42.7299C36.2602 42.7299 38.2702 41.8299 39.7202 40.3799C40.6302 39.4699 41.3302 38.3299 41.7202 37.0599H45.9202C45.3702 39.1199 44.2802 41.0199 42.7302 42.5599C40.4102 44.8799 37.3202 46.1599 34.0302 46.1599C30.7402 46.1599 27.6602 44.8799 25.3302 42.5599C23.0102 40.2399 21.7302 37.1499 21.7302 33.8599V30.9099H25.9902V34.6799C25.9902 39.1199 29.5902 42.7199 34.0302 42.7199L34.0402 42.7299ZM18.9902 22.9399H22.1202C22.3902 21.8699 22.8102 20.8399 23.3602 19.8899C23.9002 18.9499 24.5602 18.0799 25.3402 17.2999C25.4702 17.1699 25.5902 17.0599 25.7202 16.9299C27.4602 15.3199 29.5902 14.2799 31.8902 13.8799C32.5902 13.7599 33.3102 13.6899 34.0402 13.6899C34.7702 13.6899 35.4802 13.7499 36.1902 13.8799C38.4902 14.2799 40.6202 15.3299 42.3602 16.9299C42.4902 17.0499 42.6202 17.1699 42.7402 17.2999C45.0602 19.6199 46.3402 22.7099 46.3402 25.9999V27.8799H18.9402C18.8502 27.8799 18.7702 27.8799 18.6802 27.8799C15.9602 27.7499 13.7602 25.6299 13.4902 22.9499H18.9802L18.9902 22.9399Z" fill="#080808"/>
<path id="Vector_7" d="M214.94 0.879883H0.850098V58.9999H218V0.879883H214.94ZM55.9001 3.93989V55.9399H3.9101V3.93989H55.9101H55.9001ZM214.94 55.9399H58.9601V3.93989H214.94V55.9399Z" fill="#080808"/>
</g>
</g>
</svg>
